<svg width="239" height="57" viewBox="0 0 239 57" fill="none" xmlns="http://www.w3.org/2000/svg">
<path d="M18.96 27.92H0.4L0 24.6C0.346667 24.1467 1.08 23.7067 2.2 23.28V5C1.10667 4.6 0.373333 4.14667 0 3.64L0.4 0.319998H18.64V7.28L15.68 7.64C15.0667 7.10667 14.5733 6.12 14.2 4.68H7.96V11.56H13.52C13.84 10.76 14.1733 10.2 14.52 9.88L17.04 10.16V17.28L14.52 17.6C14.1733 17.3333 13.84 16.7733 13.52 15.92H7.96V23.56H14.52C14.8667 22.1733 15.36 21.1867 16 20.6L18.96 20.96V27.92Z" fill="black"/>
<path d="M35.8825 0.119998L43.8425 23.2C44.9625 23.6 45.7492 24.0667 46.2025 24.6L45.8025 27.92H36.4425L36.0425 24.6C36.3625 24.1733 37.0025 23.7733 37.9625 23.4L36.8825 20.04H28.8825L27.8825 23.28C28.8158 23.6533 29.5092 24.0933 29.9625 24.6L29.5625 27.92H20.4425L20.0425 24.6C20.5225 23.9867 21.4158 23.48 22.7225 23.08L30.4025 0.119998H35.8825ZM32.5625 5.72C32.5625 7.34667 32.2292 9.24 31.5625 11.4L30.0025 16.36H35.7225L34.2025 11.48C33.5892 9.61333 33.2425 7.92 33.1625 6.4L33.1225 5.72H32.5625Z" fill="black"/>
<path d="M59.6637 4.68C58.7571 4.44 57.8104 4.32 56.8237 4.32C55.8371 4.32 55.0371 4.57333 54.4238 5.08C53.8371 5.56 53.5438 6.25333 53.5438 7.16C53.5438 8.04 53.7704 8.73333 54.2238 9.24C54.6771 9.74667 55.5704 10.1867 56.9038 10.56L60.4637 11.6C62.3837 12.16 63.9037 13.04 65.0238 14.24C66.1704 15.4133 66.7438 17.1467 66.7438 19.44C66.7438 22.16 65.7571 24.3067 63.7838 25.88C61.8371 27.4533 59.4104 28.24 56.5037 28.24C54.9037 28.24 53.2504 28.04 51.5438 27.64C49.8638 27.2133 48.4638 26.6267 47.3438 25.88C47.3438 25.72 47.3438 25.4133 47.3438 24.96C47.3438 24.5067 47.4371 23.7333 47.6237 22.64C47.8104 21.5467 48.0771 20.6533 48.4238 19.96H52.2238C52.6504 20.7867 52.9037 21.8933 52.9837 23.28C53.9171 23.68 54.9971 23.88 56.2238 23.88C57.4771 23.88 58.5038 23.5867 59.3038 23C60.1038 22.4133 60.5037 21.5733 60.5037 20.48C60.5037 19.9733 60.4638 19.56 60.3838 19.24C60.3038 18.8933 60.0504 18.5333 59.6237 18.16C59.2237 17.76 58.6371 17.44 57.8638 17.2L53.7438 16C49.5571 14.8 47.4637 12.1333 47.4637 8C47.4637 5.57333 48.3437 3.64 50.1037 2.2C51.8637 0.733333 54.1571 0 56.9837 0C59.8371 0 62.6237 0.64 65.3438 1.92C65.3438 2.08 65.3438 2.38667 65.3438 2.84C65.3438 3.29333 65.2504 4.06667 65.0638 5.16C64.8771 6.25333 64.6104 7.14667 64.2637 7.84H60.4637C60.0104 7.2 59.7438 6.14667 59.6637 4.68Z" fill="black"/>
<path d="M90.3072 0.36V6.08L87.7872 6.4C87.4405 6.13333 87.1072 5.57333 86.7872 4.72H81.9872V23.28C83.0539 23.7067 83.7872 24.1467 84.1872 24.6L83.7872 27.92H74.4272L74.0272 24.6C74.3739 24.1467 75.1072 23.7067 76.2272 23.28V4.72H71.4272C71.1072 5.57333 70.7739 6.13333 70.4272 6.4L67.9072 6.08V0.36H90.3072Z" fill="black"/>
<path d="M101.394 0.319998C104.541 0.319998 106.821 0.519999 108.234 0.92C109.674 1.29333 110.701 1.74667 111.314 2.28C112.674 3.45333 113.354 5.25333 113.354 7.68C113.354 9.49333 112.381 11.2133 110.434 12.84C112.914 14.0933 114.154 16.4267 114.154 19.84C114.154 22.5067 113.274 24.4933 111.514 25.8C109.781 27.08 107.181 27.7867 103.714 27.92H92.3141L91.9141 24.6C92.2607 24.1467 92.9941 23.7067 94.1141 23.28V5C93.0207 4.6 92.2874 4.14667 91.9141 3.64L92.3141 0.319998H101.394ZM103.434 15.96H99.8741V23.56H102.634C104.447 23.56 105.821 23.2933 106.754 22.76C107.687 22.2267 108.154 21.2667 108.154 19.88C108.154 18.4933 107.781 17.4933 107.034 16.88C106.314 16.2667 105.114 15.96 103.434 15.96ZM101.954 4.68H99.8741V11.6H103.154C104.514 11.6 105.554 11.2533 106.274 10.56C106.994 9.86667 107.354 9.02667 107.354 8.04C107.354 7.02667 107.101 6.26667 106.594 5.76C106.087 5.25333 105.501 4.94667 104.834 4.84C104.167 4.73333 103.207 4.68 101.954 4.68Z" fill="black"/>
<path d="M127.842 28.24C124.055 28.24 121.215 27.1467 119.322 24.96C117.455 22.7733 116.522 19.24 116.522 14.36C116.522 9.45333 117.548 5.84 119.602 3.52C121.682 1.17333 124.628 0 128.442 0C132.282 0 135.135 1.04 137.002 3.12C138.895 5.2 139.842 8.68 139.842 13.56C139.842 18.44 138.788 22.1067 136.682 24.56C134.575 27.0133 131.628 28.24 127.842 28.24ZM123.962 6.6C123.002 7.98667 122.522 10.4 122.522 13.84C122.522 17.28 123.028 19.7867 124.042 21.36C125.055 22.9333 126.442 23.72 128.202 23.72C129.988 23.72 131.375 22.9867 132.362 21.52C133.348 20.0267 133.842 17.56 133.842 14.12C133.842 7.72 131.922 4.52 128.082 4.52C126.295 4.52 124.922 5.21333 123.962 6.6Z" fill="black"/>
<path d="M163.545 17.92C163.545 21.4133 162.745 24.0133 161.145 25.72C159.571 27.4 157.011 28.24 153.465 28.24C149.918 28.24 147.425 27.4133 145.985 25.76C144.571 24.08 143.865 21.4667 143.865 17.92V5C142.851 4.62667 142.118 4.17333 141.665 3.64L142.065 0.319998H151.425L151.825 3.64C151.398 4.14667 150.665 4.6 149.625 5V18.08C149.625 20 149.931 21.4267 150.545 22.36C151.185 23.2667 152.318 23.72 153.945 23.72C155.571 23.72 156.718 23.2533 157.385 22.32C158.051 21.36 158.385 19.9467 158.385 18.08V5C157.291 4.6 156.558 4.14667 156.185 3.64L156.585 0.319998H165.345L165.745 3.64C165.318 4.14667 164.585 4.6 163.545 5V17.92Z" fill="black"/>
<path d="M189.296 8.4C189.296 10.2133 188.723 11.7333 187.576 12.96C186.456 14.1867 185.043 15.12 183.336 15.76C184.67 16.32 185.55 17 185.976 17.8L188.896 23.36C190.15 23.7867 191.003 24.28 191.456 24.84L191.056 27.92H184.296L179.696 18.12C179.27 17.1333 178.776 16.64 178.216 16.64H175.616V23.04C177.563 23.4667 178.776 23.9867 179.256 24.6L178.856 27.92H168.056L167.656 24.6C168.003 24.1467 168.736 23.7067 169.856 23.28V5C168.763 4.6 168.03 4.14667 167.656 3.64L168.056 0.319998H178.256C181.99 0.373333 184.763 0.973333 186.576 2.12C188.39 3.26667 189.296 5.36 189.296 8.4ZM177.976 4.68H175.616V12.28H177.896C179.71 12.28 181.056 12.0133 181.936 11.48C182.843 10.92 183.296 9.93333 183.296 8.52C183.296 7.10667 182.843 6.12 181.936 5.56C181.03 4.97333 179.71 4.68 177.976 4.68Z" fill="black"/>
<path d="M199.213 12.84V23.36C200.2 23.7333 200.933 24.2267 201.413 24.84L201.013 27.92H193.173L192.773 24.84C193.253 24.2267 193.987 23.7333 194.973 23.36V4.88C193.88 4.48 193.12 3.98667 192.693 3.4L193.093 0.319998H201.333L209.293 15.84C209.88 16.96 210.453 18.4533 211.013 20.32L211.293 21.28L211.733 21.12C211.36 18.8 211.173 16.8533 211.173 15.28V4.92C210.213 4.54667 209.48 4.04 208.973 3.4L209.373 0.319998H217.213L217.613 3.4C217.107 4.04 216.373 4.54667 215.413 4.92V27.92H209.133L201.093 12.28C200.507 11.16 199.933 9.65333 199.373 7.76L199.093 6.84L198.653 7C199.027 9.32 199.213 11.2667 199.213 12.84Z" fill="black"/>
<path d="M238.765 27.92H220.205L219.805 24.6C220.151 24.1467 220.885 23.7067 222.005 23.28V5C220.911 4.6 220.178 4.14667 219.805 3.64L220.205 0.319998H238.445V7.28L235.485 7.64C234.871 7.10667 234.378 6.12 234.005 4.68H227.765V11.56H233.325C233.645 10.76 233.978 10.2 234.325 9.88L236.845 10.16V17.28L234.325 17.6C233.978 17.3333 233.645 16.7733 233.325 15.92H227.765V23.56H234.325C234.671 22.1733 235.165 21.1867 235.805 20.6L238.765 20.96V27.92Z" fill="black"/>
<path d="M22.8814 42.6068C22.8814 41.6626 22.9634 40.1989 23.1275 38.2159L23.1978 37.3661L22.8463 37.3306C22.3073 39.3373 21.8387 40.9307 21.4403 42.1111L16.7656 55.9567H12.0909L7.17021 42.1111C6.725 41.0488 6.32666 39.7268 5.97518 38.1451L5.76429 37.3306L5.41281 37.3661C5.6237 39.4671 5.72914 41.214 5.72914 42.6068V51.9199C6.59613 52.2504 7.24051 52.6871 7.66229 53.2301L7.31081 55.9567H0.421777L0.0702962 53.2301C0.492073 52.6871 1.13646 52.2504 2.00344 51.9199V35.5601C1.04273 35.206 0.374913 34.7693 0 34.2499L0.351481 31.5233H8.36525L13.4969 45.7938C14.153 47.3519 14.5747 48.7801 14.7622 50.0785L14.8677 50.6805H15.3597C15.4535 49.2405 15.8752 47.6116 16.6251 45.7938L21.5106 31.5233H29.3838L29.7353 34.2499C29.3604 34.7693 28.6926 35.206 27.7319 35.5601V51.7782C28.6457 52.1323 29.2901 52.5455 29.665 53.0176L29.3135 55.9567H21.2998L20.9483 53.053C21.3232 52.5809 21.9676 52.1678 22.8814 51.8136V42.6068Z" fill="black"/>
<path d="M50.6212 47.104C50.6212 50.1966 49.9183 52.4983 48.5124 54.0091C47.1299 55.4964 44.8804 56.24 41.7639 56.24C38.6474 56.24 36.4566 55.5082 35.1912 54.0445C33.9493 52.5573 33.3284 50.2438 33.3284 47.104V35.6663C32.4379 35.3358 31.7936 34.9345 31.3952 34.4624L31.7467 31.5233H39.9714L40.3228 34.4624C39.9479 34.9109 39.3035 35.3122 38.3897 35.6663V47.2457C38.3897 48.9454 38.6592 50.2084 39.1981 51.0346C39.7605 51.8373 40.7563 52.2386 42.1857 52.2386C43.615 52.2386 44.6226 51.8254 45.2084 50.9992C45.7942 50.1493 46.0871 48.8982 46.0871 47.2457V35.6663C45.1264 35.3122 44.482 34.9109 44.154 34.4624L44.5055 31.5233H52.2029L52.5544 34.4624C52.1795 34.9109 51.5351 35.3122 50.6212 35.6663V47.104Z" fill="black"/>
<path d="M65.0597 35.383C64.263 35.1706 63.4312 35.0644 62.5642 35.0644C61.6972 35.0644 60.9942 35.2886 60.4553 35.7372C59.9398 36.1621 59.682 36.7759 59.682 37.5785C59.682 38.3576 59.8812 38.9713 60.2796 39.4199C60.6779 39.8684 61.4629 40.2579 62.6345 40.5884L65.7627 41.5091C67.4498 42.0049 68.7854 42.7839 69.7695 43.8462C70.7771 44.8849 71.2809 46.4194 71.2809 48.4496C71.2809 50.8576 70.4139 52.7579 68.6799 54.1508C66.9694 55.5436 64.8371 56.24 62.283 56.24C60.8771 56.24 59.4243 56.0629 57.9246 55.7088C56.4484 55.3311 55.2182 54.8118 54.2341 54.1508C54.2341 54.0091 54.2341 53.7376 54.2341 53.3363C54.2341 52.935 54.3161 52.2504 54.4801 51.2825C54.6441 50.3146 54.8785 49.5237 55.1831 48.91H58.5222C58.8971 49.6418 59.1197 50.6215 59.19 51.8491C60.0101 52.2032 60.9591 52.3802 62.037 52.3802C63.1383 52.3802 64.0404 52.1205 64.7434 51.6012C65.4463 51.0818 65.7978 50.3382 65.7978 49.3703C65.7978 48.9218 65.7627 48.5559 65.6924 48.2726C65.6221 47.9657 65.3995 47.647 65.0245 47.3165C64.6731 46.9624 64.1576 46.6791 63.478 46.4666L59.8578 45.4043C56.1789 44.342 54.3395 41.9813 54.3395 38.3221C54.3395 36.1739 55.1128 34.4624 56.6593 33.1876C58.2058 31.8892 60.221 31.24 62.7048 31.24C65.212 31.24 67.6607 31.8066 70.0507 32.9397C70.0507 33.0813 70.0507 33.3528 70.0507 33.7542C70.0507 34.1555 69.9687 34.8401 69.8047 35.808C69.6407 36.7759 69.4063 37.5667 69.1017 38.1805H65.7627C65.3643 37.6139 65.13 36.6814 65.0597 35.383Z" fill="black"/>
<path d="M81.7229 31.5233L82.0744 34.4624C81.6995 34.9109 81.0551 35.3122 80.1413 35.6663V51.8491C81.0785 52.2268 81.7229 52.6163 82.0744 53.0176L81.7229 55.9567H73.4983L73.1468 53.0176C73.4514 52.6163 74.0958 52.2268 75.0799 51.8491V35.6663C74.1192 35.3122 73.4748 34.9109 73.1468 34.4624L73.4983 31.5233H81.7229Z" fill="black"/>
<path d="M97.24 35.7017C96.537 35.3949 95.4826 35.2414 94.0767 35.2414C92.6707 35.2414 91.5343 35.8552 90.6673 37.0828C89.8003 38.3103 89.3668 40.4586 89.3668 43.5275C89.3668 46.5965 89.7769 48.7801 90.597 50.0785C91.4405 51.3533 92.6824 51.9907 94.3227 51.9907C96.8299 51.9907 99.0794 51.613 101.071 50.8576L102.336 54.0091C99.8527 55.4964 96.9354 56.24 93.5846 56.24C90.2338 56.24 87.8086 55.2839 86.3089 53.3717C84.8327 51.4595 84.0946 48.3316 84.0946 43.9879C84.0946 39.6441 85.0084 36.4336 86.8361 34.3561C88.6873 32.2787 91.2765 31.24 94.6039 31.24C97.2751 31.24 99.8175 31.9836 102.231 33.4709C102.231 33.6125 102.231 33.884 102.231 34.2853C102.231 34.6866 102.149 35.3712 101.985 36.3391C101.821 37.307 101.587 38.0979 101.282 38.7117H97.9429C97.6149 38.0743 97.3806 37.071 97.24 35.7017Z" fill="black"/>
<path d="M131.12 38.6762C131.12 40.2815 130.616 41.6271 129.609 42.7131C128.624 43.799 127.383 44.6253 125.883 45.1918C127.055 45.6876 127.828 46.2896 128.203 46.9978L130.769 51.9199C131.87 52.2976 132.62 52.7343 133.018 53.2301L132.667 55.9567H126.726L122.684 47.2811C122.31 46.4076 121.876 45.9709 121.384 45.9709H119.099V51.6366C120.81 52.0143 121.876 52.4746 122.298 53.0176L121.946 55.9567H112.456L112.105 53.0176C112.41 52.6163 113.054 52.2268 114.038 51.8491V35.6663C113.077 35.3122 112.433 34.9109 112.105 34.4624L112.456 31.5233H121.419C124.7 31.5705 127.137 32.1017 128.73 33.1168C130.323 34.1319 131.12 35.985 131.12 38.6762ZM121.173 35.383H119.099V42.1111H121.103C122.696 42.1111 123.88 41.875 124.653 41.4029C125.449 40.9071 125.848 40.0337 125.848 38.7825C125.848 37.5313 125.449 36.6578 124.653 36.1621C123.856 35.6427 122.696 35.383 121.173 35.383Z" fill="black"/>
<path d="M150.836 55.9567H134.527L134.175 53.0176C134.48 52.6163 135.124 52.2268 136.109 51.8491V35.6663C135.148 35.3122 134.503 34.9109 134.175 34.4624L134.527 31.5233H150.554V37.6847L147.953 38.0034C147.415 37.5313 146.981 36.6578 146.653 35.383H141.17V41.4737H146.055C146.337 40.7655 146.63 40.2697 146.934 39.9864L149.149 40.2343V46.5374L146.934 46.8207C146.63 46.5847 146.337 46.0889 146.055 45.3335H141.17V52.0969H146.934C147.239 50.8694 147.672 49.9959 148.235 49.4765L150.836 49.7952V55.9567Z" fill="black"/>
<path d="M160.644 56.1338L153.966 35.6663C152.958 35.2886 152.302 34.8873 151.998 34.4624L152.349 31.5233H160.574L160.925 34.4624C160.597 34.9109 160 35.2886 159.133 35.5955L162.12 46.0771C162.612 47.706 162.917 49.2051 163.034 50.5743L163.069 51.1763H163.561C163.585 49.7362 163.878 48.0601 164.44 46.1479L167.568 35.6309C166.678 35.324 166.057 34.9345 165.705 34.4624L166.057 31.5233H174.071L174.422 34.4624C174 34.9817 173.215 35.4303 172.067 35.808L165.459 56.1338H160.644Z" fill="black"/>
<path d="M183.838 31.5233L184.189 34.4624C183.814 34.9109 183.17 35.3122 182.256 35.6663V51.8491C183.193 52.2268 183.838 52.6163 184.189 53.0176L183.838 55.9567H175.613L175.262 53.0176C175.566 52.6163 176.211 52.2268 177.195 51.8491V35.6663C176.234 35.3122 175.59 34.9109 175.262 34.4624L175.613 31.5233H183.838Z" fill="black"/>
<path d="M203.112 55.9567H186.803L186.451 53.0176C186.756 52.6163 187.4 52.2268 188.385 51.8491V35.6663C187.424 35.3122 186.779 34.9109 186.451 34.4624L186.803 31.5233H202.83V37.6847L200.229 38.0034C199.69 37.5313 199.257 36.6578 198.929 35.383H193.446V41.4737H198.331C198.613 40.7655 198.906 40.2697 199.21 39.9864L201.424 40.2343V46.5374L199.21 46.8207C198.906 46.5847 198.613 46.0889 198.331 45.3335H193.446V52.0969H199.21C199.515 50.8694 199.948 49.9959 200.511 49.4765L203.112 49.7952V55.9567Z" fill="black"/>
<path d="M220.301 42.7131L217.349 56.1338H211.936L206.312 35.6663C205.352 35.3122 204.707 34.9109 204.379 34.4624L204.731 31.5233H212.85L213.201 34.4624C212.803 34.9345 212.17 35.324 211.303 35.6309L213.799 46.0771C214.174 47.588 214.467 49.087 214.678 50.5743L214.748 51.1763H215.24C215.263 49.7834 215.486 48.1073 215.908 46.1479L219.071 31.7712H224.449L227.612 46.0771C227.987 47.8004 228.245 49.2995 228.385 50.5743L228.456 51.2117H228.948C228.995 49.7716 229.276 48.0837 229.791 46.1479L232.568 35.7726C231.584 35.4185 230.904 34.9817 230.529 34.4624L230.881 31.5233H238.649L239 34.4624C238.555 35.0289 237.77 35.4893 236.645 35.8434L230.74 56.1338H225.222L222.375 42.7485C222.047 41.1432 221.801 39.5733 221.637 38.0389L221.567 37.3306H221.074C220.981 38.9595 220.723 40.7537 220.301 42.7131Z" fill="black"/>
</svg>
